2012 (2009) R5 DVDRip XviD-MAX (English BEST QUALITY) 
http://torrents.thepiratebay.org/5193947/2012_(2009)_R5_DVDRip_XviD-MAX.5193947.TPB.torrent

2012 (2009) ENGLISH CAM XviD-MAX

Format                           : AVI
Format/Info                      : Audio Video Interleave
Format profile                   : OpenDML
File size                        : 1.30 GiB
Duration                         : 2h 27mn
Overall bit rate                 : 499 Kbps
Writing application              : VirtualDubMod 1.5.10.2 (build 2542/release)
Writing library                  : VirtualDubMod build 2542/release
Original source form             : MAX TORRENTZ
Copyright                        : SIGISMUNT

Video
Format                           : xvid
Codec ID                         : xvid
Duration                         : 2h 27mn
Bit rate                         : 442 Kbps
Width                            : 640 pixels
Height                           : 352 pixels
Display aspect ratio             : 16:9
Frame rate                       : 25.000 fps
Resolution                       : 24 bits
Bits/(Pixel*Frame)               : 0.079
Stream size                      : 1.16 GiB (89%)

Audio
ID                               : 1
Format                           : MPEG Audio
Format version                   : Version 1
Format profile                   : Layer 3
Codec ID                         : 55
Codec ID/Hint                    : MP3
Duration                         : 2h 27mn
Bit rate mode                    : Constant
Bit rate                         : 128 Kbps
Channel(s)                       : 2 channels
Sampling rate                    : 44.1 KHz
Resolution                       : 16 bits
Stream size                      : 135 MiB (10%)
Alignment                        : Aligned on interleaves
Interleave, duration             : 26 ms (0.65 video frame)
Interleave, preload duration     : 26 ms 
http://www.imdb.com/title/tt1190080/

Screens: 
http://www.postimg.com/image/8000/7982.jpg 
http://www.postimg.com/image/8000/7983.jpg 
http://www.postimg.com/image/8000/7984.jpg 
http://www.postimg.com/image/8000/7985.jpg

ScreenCaps: 
http://www.postimg.com/image/8000/7986.jpg

2012 (2009) ENGLISH CAM XviD-MAX Torrent Free Download 
http://thepiratebay.org/user/extremezone/0/7